<?xml version="1.0" encoding="UTF-8"?>
<svg id="Layer_1" xmlns="http://www.w3.org/2000/svg" viewBox="0 0 161 58"><defs><style>.cls-1{fill:#0070cd;}.cls-2{fill:#1b8900;}</style></defs><path d="M149.2,21.3c.4.2.7.5.9.9.2.4.3.9.3,1.4s-.1,1-.3,1.4c-.2.4-.5.7-.9,1-.4.2-.8.3-1.3.3s-1-.1-1.4-.3c-.4-.2-.7-.5-.9-1-.2-.4-.3-.9-.3-1.4s.1-1,.3-1.4c.2-.4.5-.7.9-.9s.9-.3,1.4-.3.9.1,1.3.3ZM149.4,25.1c.4-.4.6-.9.6-1.5s-.2-1.1-.6-1.5c-.4-.4-.9-.6-1.5-.6s-1.1.2-1.5.6c-.4.4-.6.9-.6,1.5s.2,1.1.6,1.5c.4.4.9.6,1.5.6s1.1-.2,1.5-.6ZM148.9,23.6c-.1.1-.3.2-.4.3l.7,1.1h-.8s-.6-1-.6-1h-.2v1h-.7v-2.8h1.2c.3,0,.5,0,.7.2s.3.4.3.6,0,.4-.2.5ZM147.5,23.4h.5c0,0,.2,0,.2,0,0,0,0-.1,0-.2s0-.2,0-.2c0,0-.1,0-.2,0h-.5v.6Z"/><path class="cls-1" d="M44.4,53.3c0-.4-.1-.7-.4-1s-.8-.5-1.5-.7c-.7-.2-1.3-.5-1.7-.7-1.4-.7-2.1-1.8-2.1-3s.2-1.2.5-1.7c.4-.5.9-.9,1.5-1.1.7-.3,1.4-.4,2.2-.4s1.5.1,2.1.4c.6.3,1.1.7,1.5,1.3.3.5.5,1.2.5,1.9h-2.7c0-.5-.1-.8-.4-1.1s-.6-.4-1.1-.4-.9.1-1.1.3-.4.5-.4.8.2.6.5.8.8.5,1.6.7c.8.3,1.4.5,1.9.8,1.2.7,1.8,1.7,1.8,3s-.4,1.8-1.1,2.4c-.7.6-1.7.9-3,.9s-1.7-.2-2.4-.5c-.7-.3-1.3-.8-1.6-1.4-.4-.6-.6-1.3-.6-2h2.7c0,.6.2,1.1.5,1.4.3.3.8.4,1.5.4s.8,0,1-.3c.3-.2.4-.5.4-.8Z"/><path class="cls-1" d="M60.1,50.8c0,1.1-.2,2.1-.6,3-.4.9-1,1.5-1.7,2-.7.5-1.6.7-2.5.7s-1.8-.2-2.5-.7c-.7-.5-1.3-1.1-1.7-1.9-.4-.8-.6-1.8-.6-2.9v-.7c0-1.1.2-2.1.6-3,.4-.9,1-1.5,1.7-2,.7-.5,1.6-.7,2.5-.7s1.8.2,2.5.7c.7.5,1.3,1.1,1.7,2s.6,1.9.6,3v.5ZM57.4,50.3c0-1.2-.2-2-.6-2.6-.4-.6-.9-.9-1.6-.9-1.3,0-2,1.1-2.1,3.2v.9c0,1.1.2,2,.5,2.6.4.6.9.9,1.6.9s1.2-.3,1.6-.9.5-1.5.6-2.6v-.5Z"/><path class="cls-1" d="M66.4,54.2h4.6v2.1h-7.3v-11.6h2.7v9.4Z"/><path class="cls-1" d="M82.9,44.8v7.6c0,.9-.2,1.6-.5,2.2-.3.6-.9,1.1-1.5,1.4-.7.3-1.4.5-2.3.5-1.3,0-2.4-.4-3.2-1.1-.8-.7-1.2-1.7-1.2-3v-7.6h2.7v7.7c0,1.3.6,1.9,1.7,1.9s1-.2,1.3-.5.4-.8.4-1.6v-7.6h2.7Z"/><path class="cls-1" d="M95.5,46.9h-3.3v9.4h-2.7v-9.4h-3.3v-2.2h9.2v2.2Z"/><path class="cls-1" d="M101.7,56.3h-2.7v-11.6h2.7v11.6Z"/><path class="cls-1" d="M115.2,50.8c0,1.1-.2,2.1-.6,3-.4.9-1,1.5-1.7,2s-1.6.7-2.5.7-1.8-.2-2.5-.7c-.7-.5-1.3-1.1-1.7-1.9-.4-.8-.6-1.8-.6-2.9v-.7c0-1.1.2-2.1.6-3s1-1.5,1.7-2c.7-.5,1.6-.7,2.5-.7s1.8.2,2.5.7c.7.5,1.3,1.1,1.7,2s.6,1.9.6,3v.5ZM112.5,50.3c0-1.2-.2-2-.6-2.6-.4-.6-.9-.9-1.6-.9-1.3,0-2,1.1-2.1,3.2v.9c0,1.1.2,2,.5,2.6.4.6.9.9,1.6.9s1.2-.3,1.6-.9.5-1.5.6-2.6v-.5Z"/><path class="cls-1" d="M128.1,56.3h-2.7l-3.9-7.2v7.2h-2.7v-11.6h2.7l3.9,7.2v-7.2h2.7v11.6Z"/><path class="cls-1" d="M137.7,53.3c0-.4-.1-.7-.4-1s-.8-.5-1.5-.7c-.7-.2-1.3-.5-1.7-.7-1.4-.7-2.1-1.8-2.1-3s.2-1.2.5-1.7c.4-.5.9-.9,1.5-1.1.7-.3,1.4-.4,2.2-.4s1.5.1,2.1.4c.6.3,1.1.7,1.5,1.3.3.5.5,1.2.5,1.9h-2.7c0-.5-.1-.8-.4-1.1s-.6-.4-1.1-.4-.9.1-1.1.3-.4.5-.4.8.2.6.5.8.8.5,1.6.7c.8.3,1.4.5,1.9.8,1.2.7,1.8,1.7,1.8,3s-.4,1.8-1.1,2.4c-.7.6-1.7.9-3,.9s-1.7-.2-2.4-.5c-.7-.3-1.3-.8-1.6-1.4-.4-.6-.6-1.3-.6-2h2.7c0,.6.2,1.1.5,1.4.3.3.8.4,1.5.4s.8,0,1-.3c.3-.2.4-.5.4-.8Z"/><path class="cls-1" d="M137.7,53.3c0-.4-.1-.7-.4-1s-.8-.5-1.5-.7c-.7-.2-1.3-.5-1.7-.7-1.4-.7-2.1-1.8-2.1-3s.2-1.2.5-1.7c.4-.5.9-.9,1.5-1.1.7-.3,1.4-.4,2.2-.4s1.5.1,2.1.4c.6.3,1.1.7,1.5,1.3.3.5.5,1.2.5,1.9h-2.7c0-.5-.1-.8-.4-1.1s-.6-.4-1.1-.4-.9.1-1.1.3-.4.5-.4.8.2.6.5.8.8.5,1.6.7c.8.3,1.4.5,1.9.8,1.2.7,1.8,1.7,1.8,3s-.4,1.8-1.1,2.4c-.7.6-1.7.9-3,.9s-1.7-.2-2.4-.5c-.7-.3-1.3-.8-1.6-1.4-.4-.6-.6-1.3-.6-2h2.7c0,.6.2,1.1.5,1.4.3.3.8.4,1.5.4s.8,0,1-.3c.3-.2.4-.5.4-.8Z"/><path d="M10,21.6l-3.9,18.4H.5l3.9-18.4h5.6Z"/><path d="M14.5,26c.4-1.6.6-3.2.8-4.4h5.4c-.1,1-.3,2-.5,3h0c2.4-2.6,5.2-3.7,8.6-3.7s8,1.8,6.8,7.8l-2.4,11.4h-5.6l2.1-9.8c1-4.6-.9-5.6-3.6-5.6s-6.2,2-7.1,6.5l-1.9,8.9h-5.6l3-14.1Z"/><path d="M41.7,26c.4-1.6.6-3.2.8-4.4h5.4c-.1,1-.3,2-.5,3h0c2.4-2.6,5.2-3.7,8.6-3.7s8,1.8,6.8,7.8l-2.4,11.4h-5.6l2.1-9.8c1-4.6-.9-5.6-3.6-5.6s-6.2,2-7.1,6.5l-1.9,8.9h-5.6l3-14.1Z"/><path d="M90.7,30.9c-1.1,5.1-4.7,9.9-14.1,9.9s-11-4.8-9.9-9.9c1.1-5.1,4.8-9.9,14.1-9.9s11,4.8,9.9,9.9ZM72.5,30.9c-.7,3.6.6,6.4,4.8,6.4s6.8-2.8,7.6-6.4c.8-3.6-.6-6.4-4.8-6.4s-6.8,2.8-7.6,6.4Z"/><path d="M100.5,21.6l3.9,14.3,10-14.3h6l-13.6,18.4h-7l-5.8-18.4h6.5Z"/><path d="M140.9,36.6c-.3,1.2-.4,2.2-.6,3.5h-5.1c0-.8.2-1.7.4-2.5-2.8,2.3-5.9,3.2-9.4,3.2-6.5,0-8.1-3-7.5-5.7,1.2-5.8,6.9-6.8,14-6.8h4.4c.7-3.3-1.4-4.1-4.2-4.1s-4.5,1.1-5,2.6h-5.8c1.5-4.7,6.9-5.9,11.7-5.9s10.2,1.5,8.9,7.9l-1.7,7.7ZM131.8,31.7c-4.2,0-6.8.9-7.3,3.1-.3,1.2.4,2.9,3.6,2.9s7.2-1.6,8.3-6h-4.6Z"/><ellipse cx="8.4" cy="15.7" rx="3.7" ry="3.8"/><path class="cls-1" d="M66.7,38.1q-6.4,5.9-6.4,5.9s0,0,8-4.4c-.7-.4-1.2-1-1.6-1.5Z"/><path class="cls-1" d="M83.3,14c.4,1.9,0,4-1,6.2,3.8.2,6.3,1.2,7.8,2.8,7-6.5,11.6-13,8.9-17.4-2.4-3.8-9.9-5-19.2-3.4-3.6.6-6.9,1.3-10,1.9-7.6,1.8-15.1,4.1-21.9,6.3,10.5-2.3,33.2-6.1,35.5,3.6Z"/><path class="cls-1" d="M63.6,49.8,63.8,47.5"/><path class="cls-2" d="M63.5,49.8,63.7,47.5"/></svg>