<svg width="148" height="40" viewBox="0 0 148 40" fill="none" xmlns="http://www.w3.org/2000/svg">
<path d="M59.5036 11.4018C58.5095 11.3909 57.5254 11.6022 56.6235 12.0205C55.7789 12.4076 55.0394 12.9916 54.4673 13.7236V11.6431H50.2446V28.3528H54.4673V19.1233C54.4673 17.7962 54.804 16.7758 55.4773 16.0622C56.1507 15.3486 57.0706 14.9913 58.2368 14.9904C59.3825 14.9904 60.2873 15.3477 60.9514 16.0622C61.6154 16.7767 61.9474 17.7971 61.9474 19.1233V28.3528H66.1701V18.5495C66.1701 16.2983 65.5566 14.5443 64.3295 13.2873C63.1025 12.0303 61.4938 11.4018 59.5036 11.4018Z" fill="#265DF5"/>
<path d="M81.6844 14.0252C81.0878 13.2321 80.3207 12.583 79.4398 12.1257C78.5046 11.6234 77.4141 11.3719 76.1683 11.3709C74.8029 11.3538 73.4601 11.7197 72.2922 12.4273C71.1125 13.1556 70.1612 14.2007 69.5468 15.4435C68.8734 16.7528 68.5367 18.2492 68.5367 19.9327C68.5367 21.6433 68.8734 23.1565 69.5468 24.4724C70.1627 25.726 71.1128 26.7852 72.2922 27.5335C73.4436 28.2561 74.7782 28.6329 76.1375 28.6193C77.2852 28.6432 78.4207 28.3789 79.4398 27.8505C80.333 27.391 81.1028 26.7237 81.6844 25.9047V28.3485H85.938V11.6431H81.6844V14.0252ZM81.0812 22.6374C80.706 23.3396 80.1418 23.9227 79.4525 24.3209C78.7839 24.7086 78.0242 24.9115 77.2514 24.9087C76.4903 24.91 75.7437 24.7013 75.0937 24.3054C74.4039 23.8855 73.841 23.2862 73.465 22.5715C73.0388 21.758 72.8264 20.8494 72.8477 19.9313C72.8477 18.9268 73.0535 18.0575 73.465 17.3233C73.7448 16.8168 74.1229 16.3713 74.5771 16.0128C75.0312 15.6542 75.5524 15.39 76.11 15.2354C76.6676 15.0808 77.2505 15.0391 77.8244 15.1127C78.3984 15.1862 78.9518 15.3736 79.4525 15.6637C80.1418 16.0619 80.706 16.6451 81.0812 17.3472C81.4834 18.0814 81.6844 18.961 81.6844 19.986C81.6844 21.011 81.4834 21.8948 81.0812 22.6374Z" fill="#265DF5"/>
<path d="M100.287 20.8489C100.287 22.176 99.9546 23.1964 99.2906 23.91C98.6266 24.6236 97.7119 24.9804 96.5466 24.9804C95.4 24.9804 94.4951 24.6236 93.832 23.91C93.1689 23.1964 92.8369 22.176 92.836 20.8489V11.6432H88.6133V21.4521C88.6133 22.941 88.9 24.2228 89.4733 25.2974C90.0029 26.3287 90.8272 27.1794 91.8413 27.7412C92.9076 28.3091 94.1014 28.5945 95.3092 28.5703C96.2937 28.5795 97.2678 28.3681 98.1599 27.9517C98.9992 27.5687 99.7301 26.983 100.287 26.2472V28.3515H104.539V11.6488H100.287V20.8489Z" fill="#265DF5"/>
<path d="M122.536 11.6558H117.047L111.437 18.7445V6.04566H107.214V28.3654H111.437V21.2472L117.107 28.3654H122.597L115.177 20.0408L122.536 11.6558Z" fill="#265DF5"/>
<path d="M128.771 14.2484V11.6432H124.545V28.3585H128.768V20.0338C128.768 18.4851 129.105 17.3992 129.778 16.7763C130.451 16.1535 131.452 15.8416 132.78 15.8406H133.902V11.4075C132.872 11.3831 131.853 11.6333 130.952 12.1325C130.05 12.6318 129.297 13.362 128.771 14.2484Z" fill="#265DF5"/>
<path d="M140.096 11.6432H135.873V28.3599H140.096V11.6432Z" fill="#265DF5"/>
<path d="M137.985 9.6496C139.379 9.6496 140.51 8.51904 140.51 7.12442C140.51 5.7298 139.379 4.59924 137.985 4.59924C136.59 4.59924 135.46 5.7298 135.46 7.12442C135.46 8.51904 136.59 9.6496 137.985 9.6496Z" fill="#265DF5"/>
<path d="M20.3633 39.5C31.1329 39.5 39.8633 30.7696 39.8633 20C39.8633 9.23045 31.1329 0.5 20.3633 0.5C9.59376 0.5 0.863312 9.23045 0.863312 20C0.863312 30.7696 9.59376 39.5 20.3633 39.5Z" fill="#265DF5"/>
<path d="M26.2273 27.2235L26.1838 29.2001L26.0576 34.907V35.1273C16.4142 26.7816 14.7714 24.746 14.4867 24.1273L14.4768 24.1063C14.4425 23.9898 14.4344 23.8672 14.453 23.7471C14.4598 23.7027 14.4692 23.6587 14.481 23.6153C14.4909 23.5802 14.5007 23.5465 14.5133 23.5101C14.6172 23.2371 14.7646 22.9827 14.9496 22.7567C15.0821 22.5855 15.2265 22.4238 15.3817 22.2727C15.7135 21.9446 16.0689 21.6412 16.4451 21.3651C16.6317 21.2248 16.8267 21.0845 17.0329 20.9442C17.4313 20.672 17.862 20.3999 18.3081 20.1347C21.7732 23.367 26.1712 27.1716 26.2273 27.2235Z" fill="url(#paint0_linear_0_4)"/>
<path d="M26.355 8.47672L26.3115 10.4604L26.2891 11.4424L26.2442 13.4163L26.2217 14.4067L26.1782 16.3819C26.1095 16.41 21.7115 18.1159 18.3221 20.1318C17.876 20.397 17.4467 20.6691 17.0469 20.9413C16.8421 21.0816 16.6457 21.2219 16.4591 21.3622C16.0835 21.6391 15.7282 21.9424 15.3957 22.2698C15.2409 22.4212 15.0966 22.5829 14.9636 22.7538C14.6578 23.1438 14.474 23.5268 14.4474 23.8873L14.4838 22.239V22.2277L14.4909 21.9724V21.8798L14.5203 20.8403L14.5764 18.7794L14.6031 17.7722L14.6592 15.7296C15.3564 12.8705 25.2032 8.92984 26.355 8.47672Z" fill="white"/>
<path d="M17.277 10.6625C18.8754 10.6625 20.1711 9.36674 20.1711 7.76835C20.1711 6.16997 18.8754 4.87422 17.277 4.87422C15.6786 4.87422 14.3829 6.16997 14.3829 7.76835C14.3829 9.36674 15.6786 10.6625 17.277 10.6625Z" fill="white"/>
<defs>
<linearGradient id="paint0_linear_0_4" x1="24.2338" y1="30.2172" x2="12.7962" y2="17.0232" gradientUnits="userSpaceOnUse">
<stop stop-color="white"/>
<stop offset="1" stop-color="#265DF5"/>
</linearGradient>
</defs>
</svg>
