<?xml version="1.0" encoding="UTF-8"?> <svg xmlns="http://www.w3.org/2000/svg" id="Layer_1" viewBox="0 0 113 32"><defs><style>.cls-1{fill:#eb262a;}</style></defs><g><path class="cls-1" d="M3.70674,1H13.53287c1.03491,0,2.03632,.10654,3.00394,.31826,.96716,.21289,1.81978,.58161,2.55835,1.10776,.73787,.52633,1.32765,1.23065,1.76913,2.11253,.44082,.88295,.66142,1.9859,.66142,3.30967,0,2.3927-.74357,4.19992-2.2314,5.4222-1.48736,1.22177-3.68428,1.83277-6.59126,1.83277H6.76175v9.3931H3.70674V1Zm3.05501,11.27723h5.9826c2.02879,0,3.46457-.37101,4.30832-1.11322,.84394-.7424,1.26583-1.81315,1.26583-3.2136,0-.80973-.13621-1.48031-.40933-2.01146-.27265-.53161-.65161-.95734-1.13762-1.27836-.48619-.32036-1.05248-.54395-1.70026-.67058-.64796-.12663-1.33859-.18958-2.07122-.18958H6.76175V12.27723Z"></path><path class="cls-1" d="M31.96489,10.26578c-.4926-.13509-1.11224-.20308-1.85833-.20308-1.52751,0-2.84264,.80473-3.94558,2.41368v12.01991h-3.05501V7.46603h3.05501v2.4185c1.22182-1.84945,2.69825-2.77489,4.42883-2.77489,.2206,0,.44101,.00865,.66212,.02556,.22036,.01687,.45835,.05112,.71296,.10153v3.02903Z"></path><path class="cls-1" d="M38.84025,7.10964c1.22182,0,2.32471,.19986,3.30921,.59848,.98384,.39858,1.82394,.9758,2.52003,1.73058,.69567,.75544,1.2307,1.68446,1.60372,2.78811,.37307,1.10266,.5604,2.35868,.5604,3.76736,0,1.45975-.19555,2.74063-.58591,3.844-.3904,1.10294-.938,2.03202-1.64161,2.78722-.70436,.75567-1.54442,1.32378-2.52026,1.70614-.97585,.38106-2.058,.57222-3.24557,.57222-1.17088,0-2.24439-.19116-3.22024-.57222-.97585-.38237-1.8159-.95047-2.52022-1.70614-.70436-.7552-1.24738-1.68427-1.62909-2.78722-.38171-1.10336-.57287-2.38424-.57287-3.844,0-1.44223,.19116-2.71946,.57287-3.83148,.38171-1.11117,.92473-2.04024,1.62909-2.78745,.70432-.74674,1.54437-1.31098,2.52022-1.69269,.97585-.38171,2.04935-.57292,3.22024-.57292Zm0,15.42631c1.50082,0,2.69068-.54895,3.56933-1.64778s1.31831-2.73016,1.31831-4.894c0-1.10729-.12004-2.06987-.35844-2.88782-.23887-.81772-.57544-1.49924-1.01099-2.04454-.43508-.54507-.95094-.95393-1.5476-1.22658-.59731-.27265-1.25443-.40886-1.97062-.40886-.73375,0-1.39882,.1449-1.99571,.43442-.59801,.28929-1.10953,.71137-1.53573,1.26513-.42689,.55329-.75978,1.23915-.99795,2.05711-.23915,.81772-.35802,1.75497-.35802,2.81114,0,2.12916,.43877,3.75227,1.31742,4.86844,.87861,1.11617,2.06893,1.67334,3.56999,1.67334Z"></path><path class="cls-1" d="M58.90137,22.48484c-1.35504,1.61306-2.97198,2.41891-4.85203,2.41891-1.10085,0-2.07875-.20349-2.9339-.611-.85492-.40704-1.58362-.98837-2.18416-1.74357-.60166-.75478-1.05841-1.67563-1.37214-2.76208-.31349-1.08608-.46979-2.30761-.46979-3.66587,0-1.39106,.17798-2.64274,.53366-3.75503,.35527-1.11089,.85057-2.05753,1.48578-2.83782,.63497-.78076,1.38859-1.37877,2.26061-1.79474,.87225-.41592,1.83324-.624,2.88301-.624,1.84581,0,3.39546,.5519,4.64896,1.6546V1h3.02884V24.49629h-3.02884v-2.01145Zm0-2.82507V11.50399c-1.32401-1.38541-2.81731-2.07763-4.48055-2.07763-1.28981,0-2.32542,.55377-3.10571,1.66101-.78076,1.10724-1.1707,2.78535-1.1707,5.03455,0,2.12963,.36872,3.73176,1.10724,4.80456,.73787,1.07327,1.75184,1.60946,3.04207,1.60946,1.66282,0,3.19832-.95828,4.60765-2.87619Z"></path><path class="cls-1" d="M75.09316,22.76548c-1.55835,1.42597-3.5392,2.13827-5.94377,2.13827-.82982,0-1.60031-.11906-2.31172-.35634-.71095-.23775-1.3249-.57269-1.84146-1.00576-.51633-.4326-.91879-.95005-1.20649-1.55283-.2884-.60189-.43171-1.26859-.43171-1.99823,0-3.98777,3.42056-5.98232,10.26148-5.98232h1.47368c0-.78464-.03425-1.46709-.1013-2.04776-.06799-.57998-.23181-1.05771-.49372-1.43349-.26125-.37536-.66193-.65278-1.20107-.83188-.53979-.17864-1.29023-.26878-2.25191-.26878-2.69844,0-4.08156,.97585-4.14884,2.92726h-3.02903c.23728-3.49583,2.68087-5.24399,7.33095-5.24399,1.08608,0,2.05758,.08921,2.91497,.26719,.85628,.17817,1.58185,.50559,2.1764,.98015,.59367,.47526,1.04771,1.12916,1.36214,1.96034,.31349,.83141,.47045,1.89258,.47045,3.18169v10.99729h-3.02903v-1.73081Zm0-2.74432v-3.79839h-2.06234c-4.37789,0-6.56734,1.20653-6.56734,3.61863,0,.87291,.31396,1.54007,.94206,2.00183,.62722,.46274,1.50153,.69273,2.6218,.69273,.49213,0,.98015-.05523,1.46363-.16611,.48372-.11182,.94594-.27789,1.38742-.50059,.44082-.2227,.85309-.48779,1.23481-.79534,.38171-.30802,.70801-.65894,.97996-1.05276Z"></path><path class="cls-1" d="M83.59756,9.47726c1.33747-1.57839,2.95464-2.36761,4.85157-2.36761,1.10065,0,2.08262,.20808,2.94646,.624,.86333,.41596,1.59161,1.00141,2.18481,1.75614,.59231,.75544,1.045,1.67199,1.35849,2.74932,.31349,1.07809,.47045,2.27864,.47045,3.60265,0,1.37443-.1784,2.62152-.5339,3.74134-.35545,1.12028-.85468,2.07491-1.49853,2.86385-.64385,.78992-1.40592,1.39681-2.28663,1.82025-.8802,.42437-1.83712,.63656-2.86979,.63656-1.82889,0-3.3699-.5681-4.62293-1.70567v7.84088h-3.05506V7.46603h3.05506v2.01122Zm0,11.02257c1.27266,1.35803,2.75755,2.03613,4.45458,2.03613,1.32378,0,2.36326-.55306,3.11847-1.66054,.7552-1.10752,1.13304-2.78586,1.13304-5.03437,0-2.12963-.35685-3.73152-1.06916-4.80479-.71319-1.07281-1.73124-1.60989-3.05506-1.60989-1.66371,0-3.19057,.98291-4.58186,2.94759v8.12587Z"></path><path class="cls-1" d="M103.35294,24.52185c-.33905,.06799-.68675,.11864-1.0436,.15284-.35639,.03332-.72964,.05112-1.11981,.05112-.95276,0-1.70343-.11957-2.25056-.35685-.54801-.23821-.95417-.58273-1.21929-1.03355-.26555-.44947-.42802-.99795-.48778-1.64414-.06023-.64614-.0899-1.37667-.0899-2.19303V9.83364h-2.08767v-2.36761h2.08767V3.26607h3.05506V7.46603h2.74886v2.36761h-2.74886v9.83982c0,.59596,.0379,1.07281,.11453,1.43101,.07621,.35727,.1821,.63016,.3176,.81819,.13598,.18663,.30985,.31027,.52203,.37008,.21219,.05976,.44582,.08897,.70044,.08897,.27106,0,.52979-.00776,.77576-.02463,.24639-.01645,.48778-.05023,.72553-.1013v2.26607Z"></path></g><polyline class="cls-1" points="102.85782 16.87442 110.48156 16.87442 110.48156 24.49765"></polyline></svg> 